<mxfile host="app.diagrams.net" agent="Mozilla/5.0 (Windows NT 10.0; Win64; x64) AppleWebKit/537.36 (KHTML, like Gecko) Chrome/135.0.0.0 Safari/537.36" version="26.2.13">
  <diagram name="Trang-1" id="bWXWF_terF__QEsjlvEp">
    <mxGraphModel dx="2596" dy="1373" grid="1" gridSize="10" guides="1" tooltips="1" connect="1" arrows="1" fold="1" page="1" pageScale="1" pageWidth="827" pageHeight="1169" math="0" shadow="0">
      <root>
        <mxCell id="0" />
        <mxCell id="1" parent="0" />
        <mxCell id="nbUsexd9Z1MNXFnbNHF6-1" value="Quản lý bán rau củ" style="rounded=0;whiteSpace=wrap;html=1;" vertex="1" parent="1">
          <mxGeometry x="239" y="40" width="350" height="60" as="geometry" />
        </mxCell>
        <mxCell id="nbUsexd9Z1MNXFnbNHF6-5" value="" style="endArrow=classic;html=1;rounded=0;exitX=0.466;exitY=1.033;exitDx=0;exitDy=0;exitPerimeter=0;" edge="1" parent="1" source="nbUsexd9Z1MNXFnbNHF6-1">
          <mxGeometry width="50" height="50" relative="1" as="geometry">
            <mxPoint x="400" y="120" as="sourcePoint" />
            <mxPoint x="402" y="160" as="targetPoint" />
          </mxGeometry>
        </mxCell>
        <mxCell id="nbUsexd9Z1MNXFnbNHF6-6" value="Quản lý nguồn cung" style="rounded=0;whiteSpace=wrap;html=1;" vertex="1" parent="1">
          <mxGeometry x="50" y="200" width="150" height="60" as="geometry" />
        </mxCell>
        <mxCell id="nbUsexd9Z1MNXFnbNHF6-7" value="" style="endArrow=none;html=1;rounded=0;" edge="1" parent="1">
          <mxGeometry width="50" height="50" relative="1" as="geometry">
            <mxPoint x="80" y="160" as="sourcePoint" />
            <mxPoint x="730" y="160" as="targetPoint" />
            <Array as="points">
              <mxPoint x="400" y="160" />
            </Array>
          </mxGeometry>
        </mxCell>
        <mxCell id="nbUsexd9Z1MNXFnbNHF6-8" value="" style="endArrow=classic;html=1;rounded=0;" edge="1" parent="1">
          <mxGeometry width="50" height="50" relative="1" as="geometry">
            <mxPoint x="80" y="160" as="sourcePoint" />
            <mxPoint x="80" y="199" as="targetPoint" />
          </mxGeometry>
        </mxCell>
        <mxCell id="nbUsexd9Z1MNXFnbNHF6-9" value="" style="endArrow=classic;html=1;rounded=0;" edge="1" parent="1">
          <mxGeometry width="50" height="50" relative="1" as="geometry">
            <mxPoint x="730" y="160" as="sourcePoint" />
            <mxPoint x="730" y="200" as="targetPoint" />
          </mxGeometry>
        </mxCell>
        <mxCell id="nbUsexd9Z1MNXFnbNHF6-10" value="Quản lý bán hàng" style="rounded=0;whiteSpace=wrap;html=1;" vertex="1" parent="1">
          <mxGeometry x="610" y="200" width="200" height="60" as="geometry" />
        </mxCell>
        <mxCell id="nbUsexd9Z1MNXFnbNHF6-12" value="" style="endArrow=none;html=1;rounded=0;entryX=0;entryY=0.5;entryDx=0;entryDy=0;" edge="1" parent="1" target="nbUsexd9Z1MNXFnbNHF6-6">
          <mxGeometry width="50" height="50" relative="1" as="geometry">
            <mxPoint x="30" y="520" as="sourcePoint" />
            <mxPoint x="440" y="370" as="targetPoint" />
            <Array as="points">
              <mxPoint x="30" y="230" />
            </Array>
          </mxGeometry>
        </mxCell>
        <mxCell id="nbUsexd9Z1MNXFnbNHF6-15" value="Theo dõi quản lỹ nông trại" style="ellipse;whiteSpace=wrap;html=1;" vertex="1" parent="1">
          <mxGeometry x="65" y="280" width="115" height="70" as="geometry" />
        </mxCell>
        <mxCell id="nbUsexd9Z1MNXFnbNHF6-16" value="" style="endArrow=classic;html=1;rounded=0;exitX=0.42;exitY=1.033;exitDx=0;exitDy=0;exitPerimeter=0;entryX=0.426;entryY=0.043;entryDx=0;entryDy=0;entryPerimeter=0;" edge="1" parent="1" source="nbUsexd9Z1MNXFnbNHF6-6" target="nbUsexd9Z1MNXFnbNHF6-15">
          <mxGeometry width="50" height="50" relative="1" as="geometry">
            <mxPoint x="390" y="420" as="sourcePoint" />
            <mxPoint x="440" y="370" as="targetPoint" />
          </mxGeometry>
        </mxCell>
        <mxCell id="nbUsexd9Z1MNXFnbNHF6-17" value="" style="endArrow=classic;html=1;rounded=0;exitX=0.452;exitY=1.043;exitDx=0;exitDy=0;exitPerimeter=0;" edge="1" parent="1" source="nbUsexd9Z1MNXFnbNHF6-15">
          <mxGeometry width="50" height="50" relative="1" as="geometry">
            <mxPoint x="390" y="420" as="sourcePoint" />
            <mxPoint x="117" y="380" as="targetPoint" />
          </mxGeometry>
        </mxCell>
        <mxCell id="nbUsexd9Z1MNXFnbNHF6-18" value="Nhà Cung cấp" style="ellipse;whiteSpace=wrap;html=1;" vertex="1" parent="1">
          <mxGeometry x="60" y="380" width="120" height="80" as="geometry" />
        </mxCell>
        <mxCell id="nbUsexd9Z1MNXFnbNHF6-20" value="" style="endArrow=classic;html=1;rounded=0;" edge="1" parent="1">
          <mxGeometry width="50" height="50" relative="1" as="geometry">
            <mxPoint x="30" y="520" as="sourcePoint" />
            <mxPoint x="60" y="520" as="targetPoint" />
          </mxGeometry>
        </mxCell>
        <mxCell id="nbUsexd9Z1MNXFnbNHF6-21" value="Nhập kho" style="rounded=0;whiteSpace=wrap;html=1;" vertex="1" parent="1">
          <mxGeometry x="60" y="490" width="120" height="60" as="geometry" />
        </mxCell>
        <mxCell id="nbUsexd9Z1MNXFnbNHF6-22" value="" style="endArrow=classic;html=1;rounded=0;exitX=0.5;exitY=1;exitDx=0;exitDy=0;" edge="1" parent="1" source="nbUsexd9Z1MNXFnbNHF6-21">
          <mxGeometry width="50" height="50" relative="1" as="geometry">
            <mxPoint x="390" y="720" as="sourcePoint" />
            <mxPoint x="120" y="580" as="targetPoint" />
          </mxGeometry>
        </mxCell>
        <mxCell id="nbUsexd9Z1MNXFnbNHF6-23" value="Kiểm tra sản phẩm" style="ellipse;whiteSpace=wrap;html=1;" vertex="1" parent="1">
          <mxGeometry x="65" y="580" width="110" height="70" as="geometry" />
        </mxCell>
        <mxCell id="nbUsexd9Z1MNXFnbNHF6-24" value="" style="endArrow=classic;html=1;rounded=0;exitX=0.5;exitY=1;exitDx=0;exitDy=0;" edge="1" parent="1" source="nbUsexd9Z1MNXFnbNHF6-23">
          <mxGeometry width="50" height="50" relative="1" as="geometry">
            <mxPoint x="390" y="720" as="sourcePoint" />
            <mxPoint x="120" y="680" as="targetPoint" />
          </mxGeometry>
        </mxCell>
        <mxCell id="nbUsexd9Z1MNXFnbNHF6-25" value="Phân loại chất lượng" style="ellipse;whiteSpace=wrap;html=1;" vertex="1" parent="1">
          <mxGeometry x="68.75" y="680" width="107.5" height="70" as="geometry" />
        </mxCell>
        <mxCell id="nbUsexd9Z1MNXFnbNHF6-26" value="" style="endArrow=classic;html=1;rounded=0;exitX=0.5;exitY=1;exitDx=0;exitDy=0;" edge="1" parent="1" source="nbUsexd9Z1MNXFnbNHF6-25">
          <mxGeometry width="50" height="50" relative="1" as="geometry">
            <mxPoint x="390" y="720" as="sourcePoint" />
            <mxPoint x="123" y="780" as="targetPoint" />
          </mxGeometry>
        </mxCell>
        <mxCell id="nbUsexd9Z1MNXFnbNHF6-27" value="Nhập số liệu sản phẩm" style="ellipse;whiteSpace=wrap;html=1;" vertex="1" parent="1">
          <mxGeometry x="72.5" y="780" width="100" height="70" as="geometry" />
        </mxCell>
        <mxCell id="nbUsexd9Z1MNXFnbNHF6-28" value="Quản lý sản phẩm" style="rounded=0;whiteSpace=wrap;html=1;" vertex="1" parent="1">
          <mxGeometry x="270" y="200" width="150" height="60" as="geometry" />
        </mxCell>
        <mxCell id="nbUsexd9Z1MNXFnbNHF6-29" value="" style="endArrow=classic;html=1;rounded=0;entryX=0.407;entryY=0;entryDx=0;entryDy=0;entryPerimeter=0;" edge="1" parent="1" target="nbUsexd9Z1MNXFnbNHF6-28">
          <mxGeometry width="50" height="50" relative="1" as="geometry">
            <mxPoint x="331" y="160" as="sourcePoint" />
            <mxPoint x="440" y="370" as="targetPoint" />
          </mxGeometry>
        </mxCell>
        <mxCell id="nbUsexd9Z1MNXFnbNHF6-30" value="" style="endArrow=classic;html=1;rounded=0;" edge="1" parent="1">
          <mxGeometry width="50" height="50" relative="1" as="geometry">
            <mxPoint x="330" y="260" as="sourcePoint" />
            <mxPoint x="330" y="290" as="targetPoint" />
          </mxGeometry>
        </mxCell>
        <mxCell id="nbUsexd9Z1MNXFnbNHF6-31" value="Cập nhật thông tin sản phẩm" style="ellipse;whiteSpace=wrap;html=1;" vertex="1" parent="1">
          <mxGeometry x="280" y="290" width="120" height="80" as="geometry" />
        </mxCell>
        <mxCell id="nbUsexd9Z1MNXFnbNHF6-34" value="Tên, loại, giá số lượng, nguồn gốc&amp;nbsp;" style="ellipse;whiteSpace=wrap;html=1;" vertex="1" parent="1">
          <mxGeometry x="285" y="400" width="120" height="80" as="geometry" />
        </mxCell>
        <mxCell id="nbUsexd9Z1MNXFnbNHF6-37" value="" style="endArrow=classic;html=1;rounded=0;exitX=0.5;exitY=1;exitDx=0;exitDy=0;entryX=0.457;entryY=0.02;entryDx=0;entryDy=0;entryPerimeter=0;" edge="1" parent="1" source="nbUsexd9Z1MNXFnbNHF6-31" target="nbUsexd9Z1MNXFnbNHF6-34">
          <mxGeometry width="50" height="50" relative="1" as="geometry">
            <mxPoint x="360" y="450" as="sourcePoint" />
            <mxPoint x="410" y="400" as="targetPoint" />
          </mxGeometry>
        </mxCell>
        <mxCell id="nbUsexd9Z1MNXFnbNHF6-39" value="" style="endArrow=none;html=1;rounded=0;" edge="1" parent="1">
          <mxGeometry width="50" height="50" relative="1" as="geometry">
            <mxPoint x="250" y="520" as="sourcePoint" />
            <mxPoint x="250" y="230" as="targetPoint" />
          </mxGeometry>
        </mxCell>
        <mxCell id="nbUsexd9Z1MNXFnbNHF6-40" value="" style="endArrow=classic;html=1;rounded=0;entryX=0;entryY=0.5;entryDx=0;entryDy=0;" edge="1" parent="1" target="nbUsexd9Z1MNXFnbNHF6-28">
          <mxGeometry width="50" height="50" relative="1" as="geometry">
            <mxPoint x="250" y="230" as="sourcePoint" />
            <mxPoint x="430" y="410" as="targetPoint" />
          </mxGeometry>
        </mxCell>
        <mxCell id="nbUsexd9Z1MNXFnbNHF6-42" value="Quản lý đơn hàng" style="rounded=0;whiteSpace=wrap;html=1;" vertex="1" parent="1">
          <mxGeometry x="285" y="490" width="125" height="60" as="geometry" />
        </mxCell>
        <mxCell id="nbUsexd9Z1MNXFnbNHF6-43" value="" style="endArrow=classic;html=1;rounded=0;" edge="1" parent="1">
          <mxGeometry width="50" height="50" relative="1" as="geometry">
            <mxPoint x="250" y="520" as="sourcePoint" />
            <mxPoint x="280" y="520" as="targetPoint" />
          </mxGeometry>
        </mxCell>
        <mxCell id="nbUsexd9Z1MNXFnbNHF6-44" value="" style="endArrow=classic;html=1;rounded=0;exitX=0.44;exitY=1;exitDx=0;exitDy=0;exitPerimeter=0;" edge="1" parent="1" source="nbUsexd9Z1MNXFnbNHF6-42">
          <mxGeometry width="50" height="50" relative="1" as="geometry">
            <mxPoint x="370" y="650" as="sourcePoint" />
            <mxPoint x="340" y="590" as="targetPoint" />
          </mxGeometry>
        </mxCell>
        <mxCell id="nbUsexd9Z1MNXFnbNHF6-46" value="Tiếp nhận và xử lý đơn hàng" style="ellipse;whiteSpace=wrap;html=1;" vertex="1" parent="1">
          <mxGeometry x="290" y="590" width="120" height="80" as="geometry" />
        </mxCell>
        <mxCell id="nbUsexd9Z1MNXFnbNHF6-47" value="" style="endArrow=classic;html=1;rounded=0;exitX=0.5;exitY=1;exitDx=0;exitDy=0;" edge="1" parent="1" source="nbUsexd9Z1MNXFnbNHF6-46">
          <mxGeometry width="50" height="50" relative="1" as="geometry">
            <mxPoint x="370" y="650" as="sourcePoint" />
            <mxPoint x="350" y="690" as="targetPoint" />
          </mxGeometry>
        </mxCell>
        <mxCell id="nbUsexd9Z1MNXFnbNHF6-48" value="Giao tiếp với khách hàng" style="ellipse;whiteSpace=wrap;html=1;" vertex="1" parent="1">
          <mxGeometry x="294" y="690" width="120" height="80" as="geometry" />
        </mxCell>
        <mxCell id="nbUsexd9Z1MNXFnbNHF6-50" value="Quản lý khách hàng&amp;nbsp;" style="rounded=0;whiteSpace=wrap;html=1;" vertex="1" parent="1">
          <mxGeometry x="290" y="810" width="140" height="60" as="geometry" />
        </mxCell>
        <mxCell id="nbUsexd9Z1MNXFnbNHF6-51" value="" style="endArrow=none;html=1;rounded=0;" edge="1" parent="1">
          <mxGeometry width="50" height="50" relative="1" as="geometry">
            <mxPoint x="250" y="840" as="sourcePoint" />
            <mxPoint x="250" y="520" as="targetPoint" />
          </mxGeometry>
        </mxCell>
        <mxCell id="nbUsexd9Z1MNXFnbNHF6-52" value="" style="endArrow=classic;html=1;rounded=0;" edge="1" parent="1">
          <mxGeometry width="50" height="50" relative="1" as="geometry">
            <mxPoint x="250" y="840" as="sourcePoint" />
            <mxPoint x="290" y="840" as="targetPoint" />
          </mxGeometry>
        </mxCell>
        <mxCell id="nbUsexd9Z1MNXFnbNHF6-53" value="Lưu trữ thông tin khách hàng" style="ellipse;whiteSpace=wrap;html=1;" vertex="1" parent="1">
          <mxGeometry x="300" y="900" width="120" height="80" as="geometry" />
        </mxCell>
        <mxCell id="nbUsexd9Z1MNXFnbNHF6-54" value="" style="endArrow=classic;html=1;rounded=0;exitX=0.5;exitY=1;exitDx=0;exitDy=0;entryX=0.5;entryY=0;entryDx=0;entryDy=0;" edge="1" parent="1" source="nbUsexd9Z1MNXFnbNHF6-50" target="nbUsexd9Z1MNXFnbNHF6-53">
          <mxGeometry width="50" height="50" relative="1" as="geometry">
            <mxPoint x="370" y="950" as="sourcePoint" />
            <mxPoint x="420" y="900" as="targetPoint" />
          </mxGeometry>
        </mxCell>
        <mxCell id="nbUsexd9Z1MNXFnbNHF6-55" value="Lịch sử mua hàng" style="ellipse;whiteSpace=wrap;html=1;" vertex="1" parent="1">
          <mxGeometry x="300" y="1000" width="120" height="80" as="geometry" />
        </mxCell>
        <mxCell id="nbUsexd9Z1MNXFnbNHF6-56" value="" style="endArrow=classic;html=1;rounded=0;exitX=0.5;exitY=1;exitDx=0;exitDy=0;entryX=0.5;entryY=0;entryDx=0;entryDy=0;" edge="1" parent="1" source="nbUsexd9Z1MNXFnbNHF6-53" target="nbUsexd9Z1MNXFnbNHF6-55">
          <mxGeometry width="50" height="50" relative="1" as="geometry">
            <mxPoint x="370" y="950" as="sourcePoint" />
            <mxPoint x="420" y="900" as="targetPoint" />
          </mxGeometry>
        </mxCell>
        <mxCell id="nbUsexd9Z1MNXFnbNHF6-60" value="Thanh toán" style="rounded=0;whiteSpace=wrap;html=1;" vertex="1" parent="1">
          <mxGeometry x="610" y="300" width="200" height="60" as="geometry" />
        </mxCell>
        <mxCell id="nbUsexd9Z1MNXFnbNHF6-61" value="" style="endArrow=classic;html=1;rounded=0;exitX=0.571;exitY=0.989;exitDx=0;exitDy=0;exitPerimeter=0;entryX=0.575;entryY=0.044;entryDx=0;entryDy=0;entryPerimeter=0;" edge="1" parent="1" source="nbUsexd9Z1MNXFnbNHF6-10" target="nbUsexd9Z1MNXFnbNHF6-60">
          <mxGeometry width="50" height="50" relative="1" as="geometry">
            <mxPoint x="580" y="310" as="sourcePoint" />
            <mxPoint x="630" y="260" as="targetPoint" />
          </mxGeometry>
        </mxCell>
        <mxCell id="nbUsexd9Z1MNXFnbNHF6-62" value="Tích hợp các phương thức thanh toán&amp;nbsp;" style="ellipse;whiteSpace=wrap;html=1;" vertex="1" parent="1">
          <mxGeometry x="660" y="390" width="120" height="80" as="geometry" />
        </mxCell>
        <mxCell id="nbUsexd9Z1MNXFnbNHF6-63" value="" style="endArrow=classic;html=1;rounded=0;entryX=0.458;entryY=-0.029;entryDx=0;entryDy=0;entryPerimeter=0;" edge="1" parent="1" target="nbUsexd9Z1MNXFnbNHF6-62">
          <mxGeometry width="50" height="50" relative="1" as="geometry">
            <mxPoint x="714" y="360" as="sourcePoint" />
            <mxPoint x="630" y="260" as="targetPoint" />
          </mxGeometry>
        </mxCell>
        <mxCell id="nbUsexd9Z1MNXFnbNHF6-64" value="Tiền mặt" style="ellipse;whiteSpace=wrap;html=1;" vertex="1" parent="1">
          <mxGeometry x="660" y="490" width="120" height="80" as="geometry" />
        </mxCell>
        <mxCell id="nbUsexd9Z1MNXFnbNHF6-65" value="" style="endArrow=classic;html=1;rounded=0;exitX=0.5;exitY=1;exitDx=0;exitDy=0;entryX=0.5;entryY=0;entryDx=0;entryDy=0;" edge="1" parent="1" source="nbUsexd9Z1MNXFnbNHF6-62" target="nbUsexd9Z1MNXFnbNHF6-64">
          <mxGeometry width="50" height="50" relative="1" as="geometry">
            <mxPoint x="790" y="460" as="sourcePoint" />
            <mxPoint x="840" y="410" as="targetPoint" />
          </mxGeometry>
        </mxCell>
        <mxCell id="nbUsexd9Z1MNXFnbNHF6-66" value="Chuyển khoản" style="ellipse;whiteSpace=wrap;html=1;" vertex="1" parent="1">
          <mxGeometry x="660" y="585" width="120" height="80" as="geometry" />
        </mxCell>
        <mxCell id="nbUsexd9Z1MNXFnbNHF6-67" value="" style="endArrow=classic;html=1;rounded=0;exitX=0.5;exitY=1;exitDx=0;exitDy=0;entryX=0.5;entryY=0;entryDx=0;entryDy=0;" edge="1" parent="1" source="nbUsexd9Z1MNXFnbNHF6-64" target="nbUsexd9Z1MNXFnbNHF6-66">
          <mxGeometry width="50" height="50" relative="1" as="geometry">
            <mxPoint x="790" y="620" as="sourcePoint" />
            <mxPoint x="840" y="570" as="targetPoint" />
          </mxGeometry>
        </mxCell>
        <mxCell id="nbUsexd9Z1MNXFnbNHF6-69" value="Giao hàng" style="rounded=0;whiteSpace=wrap;html=1;" vertex="1" parent="1">
          <mxGeometry x="620" y="700" width="190" height="60" as="geometry" />
        </mxCell>
        <mxCell id="nbUsexd9Z1MNXFnbNHF6-70" value="" style="endArrow=none;html=1;rounded=0;" edge="1" parent="1">
          <mxGeometry width="50" height="50" relative="1" as="geometry">
            <mxPoint x="570" y="730" as="sourcePoint" />
            <mxPoint x="570" y="230" as="targetPoint" />
          </mxGeometry>
        </mxCell>
        <mxCell id="nbUsexd9Z1MNXFnbNHF6-71" value="" style="endArrow=classic;html=1;rounded=0;entryX=0;entryY=0.5;entryDx=0;entryDy=0;" edge="1" parent="1" target="nbUsexd9Z1MNXFnbNHF6-10">
          <mxGeometry width="50" height="50" relative="1" as="geometry">
            <mxPoint x="570" y="230" as="sourcePoint" />
            <mxPoint x="850" y="390" as="targetPoint" />
          </mxGeometry>
        </mxCell>
        <mxCell id="nbUsexd9Z1MNXFnbNHF6-72" value="" style="endArrow=classic;html=1;rounded=0;" edge="1" parent="1" target="nbUsexd9Z1MNXFnbNHF6-60">
          <mxGeometry width="50" height="50" relative="1" as="geometry">
            <mxPoint x="570" y="330" as="sourcePoint" />
            <mxPoint x="690" y="340" as="targetPoint" />
          </mxGeometry>
        </mxCell>
        <mxCell id="nbUsexd9Z1MNXFnbNHF6-73" value="" style="endArrow=classic;html=1;rounded=0;entryX=0.018;entryY=0.506;entryDx=0;entryDy=0;entryPerimeter=0;" edge="1" parent="1" target="nbUsexd9Z1MNXFnbNHF6-69">
          <mxGeometry width="50" height="50" relative="1" as="geometry">
            <mxPoint x="570" y="730" as="sourcePoint" />
            <mxPoint x="690" y="710" as="targetPoint" />
          </mxGeometry>
        </mxCell>
        <mxCell id="nbUsexd9Z1MNXFnbNHF6-74" value="" style="endArrow=classic;html=1;rounded=0;exitX=0.512;exitY=1.022;exitDx=0;exitDy=0;exitPerimeter=0;" edge="1" parent="1">
          <mxGeometry width="50" height="50" relative="1" as="geometry">
            <mxPoint x="718.64" y="760" as="sourcePoint" />
            <mxPoint x="719" y="810" as="targetPoint" />
          </mxGeometry>
        </mxCell>
        <mxCell id="nbUsexd9Z1MNXFnbNHF6-75" value="Đảm bảo giao hàng đúng thời hạn" style="ellipse;whiteSpace=wrap;html=1;" vertex="1" parent="1">
          <mxGeometry x="660" y="810" width="120" height="80" as="geometry" />
        </mxCell>
        <mxCell id="nbUsexd9Z1MNXFnbNHF6-76" value="Vận chuyển bằng xe tải&amp;nbsp;" style="ellipse;whiteSpace=wrap;html=1;" vertex="1" parent="1">
          <mxGeometry x="660" y="910" width="120" height="80" as="geometry" />
        </mxCell>
        <mxCell id="nbUsexd9Z1MNXFnbNHF6-77" value="" style="endArrow=classic;html=1;rounded=0;exitX=0.482;exitY=1.026;exitDx=0;exitDy=0;exitPerimeter=0;entryX=0.48;entryY=0.014;entryDx=0;entryDy=0;entryPerimeter=0;" edge="1" parent="1" source="nbUsexd9Z1MNXFnbNHF6-75" target="nbUsexd9Z1MNXFnbNHF6-76">
          <mxGeometry width="50" height="50" relative="1" as="geometry">
            <mxPoint x="660" y="960" as="sourcePoint" />
            <mxPoint x="710" y="910" as="targetPoint" />
          </mxGeometry>
        </mxCell>
        <mxCell id="nbUsexd9Z1MNXFnbNHF6-78" value="" style="endArrow=classic;html=1;rounded=0;exitX=0.5;exitY=1;exitDx=0;exitDy=0;" edge="1" parent="1" source="nbUsexd9Z1MNXFnbNHF6-76">
          <mxGeometry width="50" height="50" relative="1" as="geometry">
            <mxPoint x="660" y="1080" as="sourcePoint" />
            <mxPoint x="720" y="1020" as="targetPoint" />
          </mxGeometry>
        </mxCell>
        <mxCell id="nbUsexd9Z1MNXFnbNHF6-79" value="Đảm bảo chất lượng sản phẩm tránh hư hại trong quá trình vận chuyển" style="ellipse;whiteSpace=wrap;html=1;" vertex="1" parent="1">
          <mxGeometry x="655" y="1020" width="135" height="100" as="geometry" />
        </mxCell>
      </root>
    </mxGraphModel>
  </diagram>
</mxfile>
